<svg width="200" height="200" viewBox="0 0 1024 1024" xmlns="http://www.w3.org/2000/svg">
    <path
        d="M489.813333 634.197333a14.976 14.976 0 0 1-3.882666-0.512l-178.133334-48.042666a14.805333 14.805333 0 0 1-10.581333-17.664l17.792-77.056a14.805333 14.805333 0 0 1 18.346667-10.965334l178.56 48.170667a14.805333 14.805333 0 0 1 10.538666 17.792l-18.261333 76.970667a14.805333 14.805333 0 0 1-14.421333 11.392v-0.085334z"
        fill="#46596E" />
    <path
        d="M352.298667 845.354667H133.248a14.805333 14.805333 0 0 1-14.848-14.848v-59.434667c0-8.192 6.656-14.848 14.848-14.848h219.050667a2.432 2.432 0 0 0 2.432-2.432v-166.826667a14.805333 14.805333 0 0 1 18.688-14.336l59.434666 16.042667a14.805333 14.805333 0 0 1 10.965334 14.293333v150.826667c-0.042667 50.56-40.96 91.477333-91.52 91.562667z"
        fill="#46596E" />
    <path
        d="M43.264 974.165333a14.805333 14.805333 0 0 1-14.805333-14.805333v-317.184c0-8.192 6.613333-14.848 14.805333-14.848A104.96 104.96 0 0 1 148.053333 732.16v137.216a104.96 104.96 0 0 1-104.789333 104.789333z"
        fill="#46596E" />
    <path
        d="M876.330667 602.88c-3.413333 0-6.826667-0.426667-10.069334-1.28l-55.808-15.061333a14.805333 14.805333 0 0 1-10.453333-18.176l27.093333-100.394667a14.677333 14.677333 0 0 1 2.005334-4.437333l108.544-160.213334a14.805333 14.805333 0 0 1 16.128-5.930666l39.466666 10.666666a38.869333 38.869333 0 0 1 24.789334 54.613334l-106.666667 218.496a38.954667 38.954667 0 0 1-35.029333 21.76z"
        fill="#B9BFDF" />
    <path
        d="M784.128 630.826667c-3.413333 0-6.826667-0.469333-10.154667-1.365334L50.773333 434.346667a38.912 38.912 0 0 1-27.434666-47.658667l34.133333-126.293333a14.805333 14.805333 0 0 1 18.133333-10.496l769.621334 207.530666c7.936 2.133333 12.586667 10.24 10.496 18.133334l-34.133334 126.378666a38.912 38.912 0 0 1-37.461333 28.757334v0.085333z"
        fill="#007fff" />
    <path
        d="M841.386667 486.656a15.104 15.104 0 0 1-3.84-0.512L28.928 268.074667a38.826667 38.826667 0 0 1-27.306667-47.658667l51.2-190.293333A38.826667 38.826667 0 0 1 100.522667 2.730667l857.6 231.253333a38.826667 38.826667 0 0 1 22.016 59.264l-126.464 186.752a14.805333 14.805333 0 0 1-12.288 6.656z"
        fill="#007fff" />
</svg>